<svg width="75" height="75" viewBox="0 0 75 75" fill="none" xmlns="http://www.w3.org/2000/svg">
<g id="Frame">
<g id="Icon">
<path id="Vector" fill-rule="evenodd" clip-rule="evenodd" d="M41.3992 22.6238C41.103 24.2918 40.7085 26.013 40.2277 27.7305C39.8467 26.3685 39.2685 24.999 38.5575 24.0098C37.9845 23.2133 37.224 22.527 36.5722 21.7935C36.1462 21.3143 35.4517 20.64 34.7145 20.1758C34.1955 19.848 33.651 19.6298 33.1477 19.587C33.012 19.5338 32.859 19.5195 32.7067 19.5548C32.3032 19.6478 32.0512 20.0513 32.1442 20.4548C32.838 23.4585 34.7227 26.784 36.87 28.9688C37.2922 29.3978 38.1 30.2513 38.8762 30.7283C38.9947 30.8018 39.114 30.8663 39.2325 30.9218C38.5335 32.952 37.722 34.9238 36.8235 36.7358C36.039 38.3183 34.9087 39.684 34.0635 41.223C34.251 37.611 34.026 34.0328 33.8962 30.405C33.8827 30.027 33.7867 29.6588 33.6862 29.2943C33.6195 29.0513 33.546 28.8113 33.546 28.5653C33.546 28.5203 33.5422 28.476 33.5347 28.4333C33.5617 28.2803 33.5422 28.1168 33.4672 27.9675C33.282 27.597 32.8312 27.4463 32.4607 27.6315C32.2492 27.738 32.0392 27.9315 31.8622 28.1753C31.7047 28.392 31.5697 28.653 31.464 28.818C30.741 29.9453 30.4537 31.2 30.1327 32.484C29.379 35.4968 28.9597 38.7488 29.7292 41.8283C30.1245 43.4085 31.0012 45.021 31.6642 46.536C30.9075 48.558 30.3112 50.646 30.0382 52.6058C30.021 52.7318 30.0045 52.8578 29.9895 52.9838C29.433 51.324 28.6927 49.7078 27.8407 48.183C27.072 46.8075 26.262 45.4815 25.3695 44.184C25.1692 43.8923 24.8722 43.5885 24.5925 43.2758C24.4072 43.0673 24.2205 42.861 24.1447 42.6345C24.114 42.5408 24.0652 42.4575 24.0052 42.3863C23.8807 42.1433 23.628 41.9775 23.337 41.9775C22.923 41.9775 22.587 42.3135 22.587 42.7275C22.587 46.8398 23.5867 50.9063 25.962 54.2775C26.337 54.81 26.6467 55.3635 27.105 55.8353C27.5587 56.3025 28.1145 56.6228 28.6875 56.9168C29.1112 57.135 29.5455 57.336 29.9235 57.6188C29.9685 58.1738 30.0307 58.731 30.1087 59.2868C29.3692 59.121 28.59 59.1045 27.8497 59.1045C25.3095 59.1045 22.4032 60.0008 20.8897 62.2118C20.433 62.88 20.2935 63.6338 20.0722 64.3935C19.9417 64.8405 19.704 65.3745 19.6597 65.8605C19.6552 65.895 19.6522 65.9295 19.6522 65.9648C19.6522 65.9715 19.6522 65.9783 19.653 65.985C19.6522 65.994 19.6522 66.0038 19.6522 66.0128C19.6522 66.4268 19.9882 66.7628 20.4022 66.7628C20.5635 66.7628 20.712 66.7125 20.8342 66.6263C20.9362 66.585 21.039 66.5295 21.1402 66.4598C21.3975 66.2813 21.6562 65.967 21.8272 65.8335C22.6057 65.223 23.385 64.5518 24.1942 63.987C25.1557 63.3158 26.1855 62.9333 27.2827 62.544C27.5325 62.4548 27.7425 62.2808 27.9982 62.2043C28.8157 61.959 29.691 61.8248 30.5175 61.5705C31.0807 64.1745 31.9575 66.7118 32.9992 69.0038C33.171 69.3803 33.6157 69.5475 33.9922 69.3758C34.3695 69.2048 34.536 68.7593 34.365 68.3828C33.3465 66.1433 32.4877 63.657 31.9485 61.11C32.2192 61.0103 32.4997 60.9443 32.778 60.8678C33.6345 60.6308 34.6095 60.2558 35.5132 60.3728C37.0777 60.5745 38.6347 60.9578 40.1775 61.2825C41.088 61.4745 42.0382 61.5503 42.93 61.8248C43.698 62.061 44.3887 62.5215 45.1387 62.8028C45.1402 62.8035 45.1425 62.8043 45.1447 62.805C45.2685 62.868 45.4102 62.8973 45.5587 62.8823C45.9705 62.841 46.2712 62.4735 46.23 62.061C46.1962 61.7198 46.0192 61.323 45.732 60.9308C45.2572 60.282 44.4645 59.6018 44.1112 59.2268C42.8707 57.909 40.9117 56.3505 39.0585 56.0423C37.5667 55.7933 35.655 56.2913 34.2885 56.886C33.2415 57.3413 32.3482 57.9705 31.5487 58.7693C31.434 57.8798 31.3635 56.9888 31.3432 56.1053C33.1252 56.5755 35.0715 56.0693 36.7957 55.461C41.235 53.8943 46.9672 50.718 48.5775 45.8873C48.6855 45.5633 48.5595 45.2168 48.291 45.0323C48.0397 44.772 47.628 44.7255 47.322 44.9393C45.1725 46.4445 42.9982 47.8493 40.5652 48.876C38.283 49.8383 35.8267 50.2155 33.5947 51.3518C32.8957 51.708 32.1952 52.0883 31.5615 52.5563C31.8682 50.5568 32.5192 48.4298 33.3232 46.3965C33.3885 46.3448 33.4455 46.2818 33.492 46.209C35.9767 46.0823 38.937 44.3843 40.5285 42.6225C41.3085 41.7593 41.9572 40.7273 41.9572 39.5175C41.9572 39.4733 41.9535 39.4305 41.9467 39.3893C41.9437 39.3593 41.94 39.33 41.934 39.3C41.853 38.8943 41.4577 38.6303 41.0512 38.712C39.5985 39.0023 38.0197 39.5295 36.8602 40.479C36.3037 40.9335 35.829 41.4773 35.343 42.0098C36.1972 40.4235 37.362 39.0255 38.1675 37.4018C38.427 36.879 38.679 36.3428 38.9242 35.796C42.393 35.7323 44.553 34.5593 46.4227 33.0638C48.2947 31.5668 50.4765 28.26 50.9895 27.5423C51.2295 27.2055 51.1515 26.7368 50.8147 26.496C50.8012 26.4863 50.7877 26.4773 50.7735 26.469C50.577 26.3325 50.319 26.2928 50.079 26.3835C47.1285 27.5078 43.935 29.028 41.4405 30.96C41.1187 31.209 40.818 31.473 40.5322 31.7505C41.4472 29.1473 42.1852 26.4413 42.6982 23.835C43.6327 23.3708 44.6955 23.2658 45.6 22.7003C48.6232 20.811 50.4525 17.8343 51.5812 14.517C51.9787 13.3493 52.3837 12.207 52.3837 10.9545C52.3837 10.9275 52.3822 10.9013 52.3792 10.875C52.3995 10.6823 52.3455 10.4813 52.2127 10.32C51.9495 10.0005 51.4762 9.95475 51.1567 10.218C49.299 11.748 47.4615 13.275 46.0057 15.2085C45.111 16.3958 44.3767 17.6903 43.6192 18.9698C43.8772 16.6613 43.7745 14.3378 43.1595 11.9993C42.9082 11.0445 42.327 10.2525 41.952 9.35176C41.5357 8.35275 41.3437 7.12576 41.3437 6.04801C41.3437 5.97826 41.3347 5.91075 41.3167 5.847C41.3332 5.55675 41.1795 5.27025 40.9035 5.13225C40.533 4.947 40.0822 5.097 39.897 5.4675C38.4045 8.45251 37.8555 11.6858 37.8555 15.0113C37.8555 16.4258 37.878 18.1815 38.4975 19.4858C38.9527 20.445 39.693 21.2363 40.4902 21.9233C40.6987 22.1025 40.9672 22.2795 41.2155 22.4745C41.2785 22.5233 41.3415 22.572 41.3992 22.6238ZM28.1842 60.6045C28.0717 60.6045 27.96 60.6045 27.8497 60.6045C25.7745 60.6045 23.364 61.2525 22.128 63.0593C21.9285 63.351 21.8152 63.6675 21.7252 63.9938C22.2547 63.567 22.7887 63.138 23.3362 62.7563C24.411 62.007 25.5547 61.5653 26.781 61.1303C27.054 61.0335 27.288 60.8513 27.567 60.7673C27.7695 60.7065 27.9757 60.6533 28.1842 60.6045ZM42.4305 60.1605C41.4667 59.5103 40.386 59.0648 39.192 58.8825C38.3392 58.752 37.4535 58.8113 36.5992 58.8533C36.3442 58.8653 36.102 58.8825 35.8687 58.9065C37.4175 59.118 38.9587 59.493 40.4865 59.8148C41.1262 59.9498 41.7847 60.0338 42.4305 60.1605ZM41.2717 58.6883C40.5015 58.1205 39.6495 57.6608 38.8117 57.5213C37.5817 57.3165 36.0135 57.771 34.887 58.2615C34.83 58.2863 34.7737 58.311 34.7182 58.3373C35.2867 58.2015 35.8852 58.137 36.5625 58.104C37.4662 58.0598 38.403 58.0028 39.3052 58.1408C39.9952 58.2465 40.6515 58.4318 41.2717 58.6883ZM42.741 50.8155C40.9927 51.6353 39.0757 52.155 37.2495 52.7588C35.4997 53.3363 33.7912 54.0173 32.103 54.747C33.486 54.9893 34.9695 54.5145 36.297 54.0465C38.3407 53.325 40.707 52.2593 42.741 50.8155ZM24.4852 46.9365C24.6532 47.5103 24.807 48.0878 25.0155 48.6263C25.329 49.4393 25.6177 50.3063 26.001 51.0863C26.439 51.978 27.0375 52.8233 27.543 53.679C27.7627 54.0525 27.9712 54.4268 28.1865 54.7965L28.1812 54.7905C27.7785 54.3758 27.5175 53.8815 27.1882 53.4135C25.8112 51.4598 24.942 49.2503 24.4852 46.9365ZM25.1392 46.5638C25.3252 47.1705 25.494 47.7833 25.7152 48.3563C26.0212 49.149 26.301 49.995 26.6745 50.7563C27.1035 51.6308 27.693 52.458 28.1887 53.298C28.4175 53.685 28.632 54.0743 28.8555 54.4568C28.8105 54.258 28.7595 54.06 28.698 53.8635C28.1595 52.1513 27.4072 50.4818 26.5312 48.915C26.085 48.1155 25.6237 47.3333 25.1392 46.5638ZM46.0267 47.6228C44.4742 48.6225 42.873 49.53 41.1487 50.2575C38.8995 51.207 36.4747 51.5685 34.2757 52.6883C33.6277 53.0183 32.9745 53.3655 32.394 53.8065C33.9112 53.1638 35.4465 52.5645 37.014 52.0463C38.9257 51.4148 40.9395 50.8808 42.7455 49.9808C43.704 49.503 44.628 48.8963 45.5302 48.276C45.705 48.0638 45.8715 47.8463 46.0267 47.6228ZM40.242 40.4498C39.363 40.7063 38.496 41.0783 37.8097 41.64C36.984 42.315 36.3472 43.1993 35.5695 43.9283C35.406 44.082 35.2005 44.2478 34.9785 44.4233C36.6712 43.9028 38.379 42.7643 39.4155 41.6168C39.735 41.2635 40.0447 40.8788 40.242 40.4498ZM32.43 31.3223C32.3025 34.7918 32.1007 38.2545 32.388 41.724C32.4577 42.5618 32.3295 43.437 32.433 44.2785C32.505 43.5315 32.457 42.7785 32.5125 42.0045C32.7675 38.4315 32.5702 34.8983 32.43 31.3223ZM31.6275 32.688C31.614 32.7413 31.6012 32.7945 31.5877 32.8478C30.8932 35.6265 30.4747 38.6243 31.185 41.4645C31.3035 41.9393 31.4692 42.4163 31.6597 42.8925C31.6665 42.5205 31.671 42.15 31.641 41.7855C31.3897 38.751 31.5082 35.721 31.6275 32.688ZM47.5305 29.7465C47.445 29.8095 47.3595 29.8725 47.2725 29.934C46.6777 30.3555 46.026 30.6953 45.4575 31.1535C45.0915 31.449 44.7727 31.7918 44.412 32.0895C43.608 32.754 42.7027 33.357 41.7675 33.8918C43.2697 33.4635 44.4307 32.736 45.486 31.8923C46.1625 31.3515 46.878 30.558 47.5305 29.7465ZM46.239 29.7195C44.856 30.4335 43.5262 31.2413 42.3592 32.1458C41.8357 32.5515 41.3752 33.0023 40.947 33.4905C42.003 32.9175 43.035 32.2545 43.9342 31.512C44.2972 31.2113 44.6182 30.867 44.9865 30.57C45.3802 30.2528 45.8122 29.9895 46.239 29.7195ZM34.0087 21.5048C34.8217 23.8515 36.2985 26.247 37.9395 27.9173C38.181 28.1625 38.5612 28.569 38.9857 28.9388C38.679 27.5018 38.1 25.944 37.3387 24.885C36.7965 24.1305 36.069 23.4855 35.451 22.7903C35.1165 22.4138 34.584 21.8873 34.0087 21.5048ZM50.1255 14.1383C49.1062 17.085 47.4967 19.746 44.805 21.4283C44.7555 21.4598 44.7045 21.489 44.6542 21.5175C45.7995 20.3603 46.6762 19.0193 47.625 17.6415C48.4372 16.4625 49.2697 15.291 50.1255 14.1383ZM40.4662 9.67201C40.4355 10.218 40.4152 10.764 40.4475 11.313C40.5045 12.2648 40.6132 13.2855 40.7977 14.223C40.9275 14.88 41.1405 15.519 41.2252 16.1858C41.4277 17.7743 41.4945 19.374 41.691 20.9625C41.7157 20.9813 41.7412 20.9993 41.7667 21.018C42.372 18.165 42.4732 15.285 41.709 12.381C41.475 11.493 40.9162 10.7655 40.5675 9.92926C40.5322 9.84451 40.4985 9.75901 40.4662 9.67201ZM49.7595 13.3748C48.8355 14.2125 47.9632 15.102 47.2035 16.1108C46.059 17.631 45.1762 19.3283 44.1697 20.9423C45.2632 19.8285 46.0972 18.537 47.007 17.2163C47.8987 15.921 48.8152 14.6363 49.7595 13.3748ZM39.684 10.9545C39.453 12.282 39.3555 13.6388 39.3555 15.0113C39.3555 16.2203 39.3225 17.7278 39.852 18.8423C40.0972 19.359 40.4527 19.809 40.854 20.2163C40.7227 18.9053 40.6477 17.589 40.4812 16.2803C40.3987 15.6308 40.188 15.0083 40.062 14.3678C39.8715 13.398 39.7575 12.342 39.699 11.3573C39.6907 11.223 39.6862 11.0888 39.684 10.9545Z" fill="#013409"/>
</g>
</g>
</svg>
