<svg width="25" height="36" viewBox="0 0 25 36" fill="none" xmlns="http://www.w3.org/2000/svg">
<g id="logout">
<path id="Vector" d="M10.2607 17.5953H23.6131" stroke="#013409" stroke-width="2" stroke-linecap="round" stroke-linejoin="round"/>
<path id="Vector_2" d="M18.4879 28.8658V32.6226H2.05421V2.56809H18.4879V6.3249H20.5421V1.31582C20.5421 0.9837 20.4339 0.66518 20.2412 0.430334C20.0486 0.195488 19.7874 0.0635529 19.515 0.0635529H1.0271C0.754699 0.0635529 0.493451 0.195488 0.300832 0.430334C0.108213 0.66518 0 0.9837 0 1.31582V33.8748C0 34.207 0.108213 34.5255 0.300832 34.7603C0.493451 34.9952 0.754699 35.1271 1.0271 35.1271H19.515C19.7874 35.1271 20.0486 34.9952 20.2412 34.7603C20.4339 34.5255 20.5421 34.207 20.5421 33.8748V28.8658H18.4879Z" fill="#013409"/>
<path id="Vector_3" d="M23.6131 17.5953L19.5046 22.6035" stroke="#013409" stroke-width="2" stroke-linecap="round" stroke-linejoin="round"/>
<path id="Vector_4" d="M23.6131 17.5944L19.5046 12.5862" stroke="#013409" stroke-width="2" stroke-linecap="round" stroke-linejoin="round"/>
<path id="Vector_5" d="M19.5046 7.68852V5.18533" stroke="#013409" stroke-width="2" stroke-linecap="round" stroke-linejoin="round"/>
<path id="Vector_6" d="M19.5046 30.1167V27.6135" stroke="#013409" stroke-width="2" stroke-linecap="round" stroke-linejoin="round"/>
</g>
</svg>
